<?xml version="1.0" encoding="UTF-8"?>
<!DOCTYPE svg PUBLIC "-//W3C//DTD SVG 1.1//EN" "http://www.w3.org/Graphics/SVG/1.1/DTD/svg11.dtd">
<!-- Creator: CorelDRAW -->
<svg xmlns="http://www.w3.org/2000/svg" xml:space="preserve" width="237.653mm" height="54.1866mm" version="1.1" style="shape-rendering:geometricPrecision; text-rendering:geometricPrecision; image-rendering:optimizeQuality; fill-rule:evenodd; clip-rule:evenodd"
viewBox="0 0 13545.49 3088.47"
 xmlns:xlink="http://www.w3.org/1999/xlink"
 xmlns:xodm="http://www.corel.com/coreldraw/odm/2003">
 <defs>
  <style type="text/css">
   <![CDATA[
    .fil0 {fill:#29156B}
    .fil4 {fill:#29156B}
    .fil5 {fill:#EEE83F}
    .fil3 {fill:#F6F619}
    .fil1 {fill:#FCFBFB}
    .fil2 {fill:#FFF406}
    .fil6 {fill:#29156B;fill-rule:nonzero}
   ]]>
  </style>
 </defs>
 <g id="Layer_x0020_1">
  <metadata id="CorelCorpID_0Corel-Layer"/>
  <g id="_2352792032224">
   <g>
    <path class="fil0" d="M-0 1187.13l17.81 416.51c8.75,59.76 16.7,112.02 27.65,170.2 53.55,284.56 121.49,478.88 260.13,738.79 10.99,20.6 25.26,40.5 36.77,59.74 13.76,22.99 24.34,39.95 39.59,61.75l121.97 172.4c15.32,21.41 28.21,35.9 44.08,57.25 40.14,54.01 56.56,55.4 124.6,78.09 69.84,23.29 232.53,73.91 306.52,89.19 54.14,11.18 107.64,22.51 164.13,33.73 37.52,7.45 141.97,23.68 179,23.68l492.23 0c58.1,0 244.85,-35.47 312.68,-54.07 77.24,-21.19 206.78,-59.49 282.3,-89.29 62.55,-24.68 74.35,-17.94 112.36,-71.01 14.18,-19.79 24.34,-33.69 37.73,-53.96 65.72,-99.61 116.94,-161.47 186.08,-282.01 45.63,-79.54 91.51,-159.62 126.36,-245.22 49.23,-120.97 57.56,-126 104.89,-266.69 15.93,-47.35 26.28,-92.46 40.91,-142.47 40.34,-137.92 70.68,-375.97 70.68,-527.71l0 -1.36 0 -1.36 0 -1.36 0 -1.36 0 -90.81c-0.88,-25.62 -5.04,-40.88 -4.86,-72.63 0.54,-94 -5.2,-79.23 -40.08,-138.47 -30.56,-51.9 -112.26,-150.86 -152.97,-204.13l-59.01 -71.28c-148.55,-167.16 -304.36,-320.65 -491.06,-445.13 -114.93,-76.63 -188.12,-117.99 -310.16,-177.24l-157.88 -68.93c-19.85,-7.93 -44.42,-16.23 -63.49,-23.38 -22.32,-8.37 -44.76,-15.9 -68.89,-22.79 -108.45,-30.96 -107.61,-35.32 -178.1,-35.81l-63.96 0 -6.84 0c-31.78,0 -212.93,65.16 -252.39,80.59 -81.36,31.8 -155.53,66.46 -230.13,102.85 -8.87,4.33 -16.2,6.89 -26.54,12.06l-134.8 72.71c-11.22,6.68 -17.24,8.74 -28.49,14.94l-407.41 306.8c-117.87,118.25 -135.79,136.03 -239.19,262.68l-53.57 71.9c-8.5,11.34 -10.64,11.66 -19.32,24.12 -64.09,92.11 -99.32,133.2 -99.32,238.48z"/>
    <path class="fil1" d="M1522.1 38.07c-379.31,114.84 -753.23,282.16 -1041.78,553.08 -45.41,42.64 -101.91,91.3 -144.85,139.92 -8.1,9.17 -11.9,15.16 -19.77,23.95 -9.03,10.09 -15.14,14.02 -23.52,24.48 -99.12,123.71 -106.61,128.51 -201.97,270.94 -42.67,63.73 -41.41,55.5 -42.82,146.34 -8.69,562.99 117.25,1042.19 412.42,1470.52 24.83,36.03 140.26,194.25 168.59,207.59 48.52,22.86 227.24,75.39 286.04,90.53 492,126.74 979.09,128.64 1454.98,-55.98 73.71,-28.6 82.48,-24.93 118.45,-69.3 160.58,-198.05 317.42,-475.19 409.95,-719.06 71.68,-188.92 121.19,-395.26 138.51,-615.2 9.53,-120.97 8.1,-236.17 -0.39,-357.45 -3.31,-47.2 -29.26,-76.39 -65.18,-123.4 -27.3,-35.73 -53.34,-72.64 -80.17,-108.24l-173.66 -202.6c-39.29,-33.8 -128.81,-134.43 -191.93,-184.51 -169.94,-134.83 -233.09,-194.13 -448.35,-304.48 -128.99,-66.13 -263.03,-119.6 -404.5,-160.22 -37.94,-10.89 -113.22,-38.06 -150.04,-26.91z"/>
    <path class="fil0" d="M1530.55 104.68c-177.52,49.23 -362.56,120.39 -515.86,200.69 -373.53,195.66 -665.95,450.19 -889.57,814.01 -28.65,46.61 -4.75,380.96 2.14,432.62 42.96,321.94 97.06,555.61 241.01,835.14 65.59,127.37 124.91,217.93 210.77,329.85 14.82,19.32 65.3,86.6 80.93,97.5 28.02,19.56 225.54,74.33 274.43,87.57 496.83,134.49 982.16,115.4 1456.13,-72.35 33.97,-13.45 32.52,-14.72 52.23,-39.56 261.03,-329.07 494.52,-810.38 525.91,-1274.41 7.8,-115.32 10.94,-224.61 2.58,-342.99 -2.45,-34.69 -6.61,-41.11 -22.06,-63.52l-155.11 -206.71c-65.24,-79.75 -141.36,-163.49 -214.43,-234.45 -17.01,-16.52 -31.7,-26.38 -48.46,-43.32l-95.14 -83.3c-175.81,-147.69 -409.77,-282.47 -627.72,-361.53 -45.25,-16.42 -238.98,-85.99 -277.77,-75.23z"/>
    <path class="fil2" d="M1861.35 1638.44c-10.33,6.65 -7.22,2.48 -8.3,16.11 -16.35,-3.94 -12.4,4.11 -17.32,-7.52 -36.37,75.88 -17.21,97.2 -119.92,179.94 -173.65,139.88 -435.64,21.15 -463.93,-188.56 -6,-44.46 -8.73,-101.13 8.94,-137.63 -12.94,-15.06 -10.94,19.54 -10.94,-19.25 11.98,-8.2 1.13,-9.3 -2.91,-24.95 -25.85,-4.23 -148.89,-71.65 -183.3,-87.96 -46.45,-22.02 -148.08,-77.5 -203.83,-74.45 9.24,61.43 206.85,118.13 284.29,148.33 30.04,11.71 79.29,27.81 89.84,52.36 -25.97,11.42 -167.66,-55.53 -217.53,-73.96 -10.7,-3.96 -27.15,-10.33 -37.55,-11.28 -10.82,-0.99 -10.11,-1.6 -20.87,1.89l-17.82 12.08c34.27,77.04 256.96,55.44 282.88,113.34 -77.83,13.31 -370.76,-80.07 -425.37,-21.65 25.81,35.28 137.16,31.54 201.41,35.06l193.33 11.73c29.35,2.66 16.49,-3.8 25.5,11.11 -3.02,6.49 1.9,11.93 -30.38,12.15 -12.56,0.09 -26.13,-0.57 -39.06,-0.52 -25.83,0.09 -51.39,-0.05 -77.21,-0.91 -52.98,-1.78 -106.32,-1.79 -159.35,-2.61 -49.18,-0.76 -98.74,-3.61 -149.5,-4.61 -78.92,-1.56 -75.69,-8.12 -124.03,35.11 32.87,29.73 82.33,28.54 122.94,22.91 50.35,-6.99 102.62,-4.21 155.52,-4.06 83.01,0.23 174.43,-12.66 260.69,-15.63 3.99,-0.14 16.02,-0.58 19.4,-0.21l20.87 6.65c-2.2,21.5 11.95,15.42 -43.69,20.62l-286.33 27.36c-65.24,4.43 -55.66,-1.09 -85.26,39.76 30.29,23.13 49.33,14.59 90.04,8.38 95.14,-14.49 247.53,-43.23 330.72,-49.74 -18.63,28.35 -91.52,29.92 -127.05,36.65 -47.64,9.03 -87.83,20.05 -140.44,24.59 -6.8,12.03 -16.96,22.82 -19.54,41.57 45.61,14.91 80.41,-4.94 151.54,-26.81 29.32,-9.02 129.06,-44.78 152.18,-44.05 -8.46,36.26 -56.4,43.02 -90.53,58.01 -32.09,14.09 -68.46,31.35 -100.84,48.62 -59.26,31.6 -163.09,55.22 -183.47,114.23 45.24,28.91 140.61,-43.82 199.03,-79.46 23.77,-14.49 168.27,-106.46 197.67,-89.44 -15.58,22.39 -310.23,193.13 -376.28,234.32 -45.89,28.62 -90.13,44.23 -104.69,102.94 118.5,0.72 124.08,-73.81 213.49,-105.46l7.19 47.77c-28.04,16.25 -30.98,13.07 -29.01,50.65l40.38 2.98c3.18,62.75 5.11,95.84 0.69,159.04 -3.51,50.1 -12.4,110.16 -10.59,160.39l489.47 0.27 0.35 -496.29 27.58 -1.96 1.43 490.59 28.44 1.93 0.6 -372.11c0.01,-23.49 -10.73,-104.66 7.8,-114.63 12.36,5.31 9.47,-5.49 9,51.86 -0.92,113.16 -4.28,351.49 0.78,439.79l496.56 0.78c-1,-65.44 -37.83,-291.52 -4.46,-337.44 24.98,6.99 -2.87,6.32 24.99,11.04 14,2.38 17.81,-2.32 30.46,3.88 11.18,-64.09 -76.03,-46.85 -40.98,-114.06 25.63,4.62 87.01,53.86 109.05,70.41 41.91,31.49 55.97,55.2 126.65,49.93 -6.2,-59.33 -59.9,-76.46 -103.19,-102.37 -104.05,-62.25 -257.63,-163.96 -356.78,-217.32 -18.69,-10.05 -25.06,-7.12 -27.07,-26.6 14.64,-9.38 32.13,2.42 51.16,11.85 104.62,51.87 286.51,183.97 353.02,164.98 -4.39,-42.57 -230.11,-137.5 -290.91,-164.33 -33.32,-14.71 -81.61,-30.05 -92.3,-59.76 45.53,1.78 113.8,30.97 154.44,45.91 37.84,13.91 119.92,53.57 155.98,20.65 -22,-47.82 -18.2,-29.74 -139.2,-56.52 -32.37,-7.16 -154.77,-25 -161.06,-39.99 11.06,-5.43 280.3,39.76 331.46,47.72 43.24,6.73 72.58,19.21 100.79,-9.11 -6.81,-15.04 -8.09,-23.55 -30.01,-27.6l-172.44 -16.64c-59.67,-4.52 -171.33,-24.41 -223.29,-20.8z"/>
    <path class="fil3" d="M1246.98 1456.57c4.04,15.66 14.89,16.76 2.91,24.95 0,38.8 -2.01,4.19 10.94,19.25 37.96,-129.97 176.09,-239.51 352.22,-198.92 144.59,33.32 236.36,166.21 222.69,345.17 4.92,11.63 0.97,3.57 17.32,7.52 1.08,-13.63 -2.03,-9.46 8.3,-16.11l-0.06 -21.82c24.53,-10.57 384.22,12.6 459.63,16.07 46.71,2.15 96.4,11.34 131.15,-25.72 -42.67,-38.93 -54.63,-32.35 -121.1,-31.06 -40.53,0.79 -434.22,14.1 -457.96,7.48 -10.62,-2.96 -5.01,-0.49 -11.52,-5.37 3.23,-27.31 39.94,-18.07 102.94,-22.43l237.45 -14.89c45.2,-3.52 73.02,-1.72 90.98,-35.25 -54.39,-17.05 -43.08,-16.85 -105.73,-7.99 -61.59,8.71 -295.57,44.38 -322.81,39.36l-7.59 -2.23c16.08,-25.76 187.55,-61.15 233.86,-71.11 32.55,-7 59.21,-11 56.43,-48.12 -65.28,-22.84 -184.8,51.82 -256.83,74.79 -22.83,7.28 -28.87,11.72 -41.24,1.01 6.52,-15.41 29.74,-17.58 47.14,-24.35 85.44,-33.22 167.35,-77.07 252.14,-109.88 32.67,-12.65 87.01,-21.43 79.15,-65.88 -56.22,-12.04 -151.32,52.18 -201.65,78.49 -36.31,18.98 -156.63,88.71 -195.48,86.56l-4.16 -17.89 389.44 -216.76c41.32,-23.67 103.17,-48.31 105,-100.46 -50.74,-1.8 -46.25,-3.13 -81.03,18.31 -20.51,12.64 -41.28,25.87 -62.28,38.89l-244.99 160.55c-26.32,16.92 -90.81,77.45 -127.02,66.07 21.77,-32.36 206.67,-155.49 258.75,-195.05 38.81,-29.48 70.3,-32.67 67.48,-83.68 -46.44,-3.56 -64.94,23.39 -96.92,49.46l-164.58 134.7c-26.61,21.24 -55.71,49.64 -83.8,64.96 26.12,-50.5 113.69,-117.01 159.86,-157.92 23.45,-20.78 40.56,-26.49 38.89,-73.7 -52.22,0.55 -77.47,49.76 -122.17,96.7 -19.74,20.74 -31.79,34.91 -49.59,56.49 -11.8,14.32 -38.08,53.59 -50.4,57.5 -16.18,-26.15 34.71,-66.45 49.69,-87.08 43.61,-60.04 89.7,-110.61 134.67,-169.46 20.74,-27.14 54.02,-55.66 49.48,-102.45 -48.36,0.76 -58.88,37.01 -81.93,70.04l-128.33 180.56c-33.62,46.3 -40.35,84.42 -73.25,75.58 11.67,-29.12 54.54,-93.84 73.65,-123.57l152.54 -248.01c13.1,-22.13 25.11,-41.31 38.54,-62.92 19.53,-31.45 17.2,-40.05 13.88,-84.83 -61.06,17.63 -63.44,55.28 -92.24,103 -26.82,44.46 -46.48,83.29 -71.84,131.2 -44.39,83.83 -103.65,173.94 -139.45,265.99l-17.4 -13.26c7.41,-26.35 31.25,-68.2 43.6,-95.86l91.44 -193.41c19.52,-40.14 36.46,-54.12 23.97,-101.16 -59.27,18.57 -79.74,117.19 -104.34,180.22l-62.76 154.4c-5.08,14.19 -7.57,42.48 -21.9,48.13 -25.25,-41.95 109.12,-234.12 62.74,-295.57 -52.9,22.34 -42.65,46.49 -59.78,132.2l-23.32 121.38c-3.76,22.53 0.66,30.54 -18.24,35.13 -4.42,-6.7 -2.47,-0.07 -4.23,-11.22 -1.16,-7.34 -0.96,-5.16 -0.56,-12.79 2.23,-42.56 21.84,-145.9 28.84,-188.63 5.93,-36.19 10.8,-72.29 16.56,-109.16 8.49,-54.34 18.02,-57.4 -8.84,-101.39 -37.46,26.16 -27.94,27.84 -33.31,83.5 -8.54,88.33 -18.72,227.28 -31.19,311.25 -3.47,23.31 2.17,16.31 -10.7,23.48 -14.85,-9.9 -7.67,-48.72 -7.56,-67.97 0.14,-26.57 0.21,-52.76 1.53,-79.28l8.55 -309.49c2.8,-56.2 5.94,-101.38 -31.47,-125.35 -36.69,45.72 -28.54,62.98 -26.73,128.25 1.44,51.61 23.65,414.22 16.94,442.87 -2.71,11.56 0.5,3.82 -4.69,10.72l-3.7 -10.92c-6.76,-30.64 -6.3,-64.86 -10.78,-95.4 -5.38,-36.69 -11.31,-71.68 -16.75,-108.69 -10.06,-68.55 3.92,-168.93 -45.99,-199.48 -27.71,26.93 -15.83,52.88 -8.04,94.64 6.81,36.48 12.19,72.55 19.3,110.56l27.92 160.52c2.83,16.93 9.44,33.44 5.41,50.76 -0.15,0.65 -0.64,2.14 -1.16,3.13l-37.92 -155.11c-11.88,-63.5 -11.17,-108.37 -57.9,-133.36 -32.74,61.78 53.42,218.7 65.48,292.41 -32.8,-26.14 -65.39,-145.9 -85.43,-197.38 -12.8,-32.88 -30,-65.85 -44.79,-99.96 -8.86,-20.41 -12.42,-34.47 -19.16,-53.24 -7.6,-21.17 -21.51,-23.12 -41.97,-29.56 -4.42,67.02 -2.53,49.03 23.97,105.43l137.53 292.61c-43.69,-6.79 -65.3,-74.87 -83.67,-114.72 -42.83,-92.94 -94.89,-172.56 -141.15,-264.28 -25.15,-49.86 -44.34,-96.53 -97.27,-112.57 -0.91,89.8 16.81,90.24 52.35,147.66l212.57 338.13c12.23,22.76 11.47,23.35 -4.38,34.73l-124.85 -171.4c-32.53,-49.59 -87.07,-152.65 -142.59,-158.01 -1.97,45.75 19.82,66.21 44.22,97.04 54.98,69.46 108.16,139.46 166.58,205.1 9.75,10.95 28.79,29.59 19.13,48.52 -18.48,-6.13 -37.6,-38.66 -49.08,-52.37 -16.5,-19.7 -33.2,-35.73 -49.91,-56.12 -27.79,-33.9 -64.3,-86.58 -118.35,-93.46 -4.12,52.78 45.2,85.56 90.13,121.64 26.53,21.29 98.5,78.17 106.46,108.58 -58.96,-38.34 -111.95,-87.31 -165.78,-131.37l-122.64 -99.41c-23,-18.88 -22.75,-14.02 -56.97,-9.72 4.89,47.34 34.89,49.68 72.53,76.28 29.93,21.16 56.4,41.57 86.59,63.11 33.31,23.77 152.52,106.81 163.81,134.78 -57.89,-9.71 -289.22,-179.68 -365.57,-227.49 -22.54,-14.11 -40.15,-25.22 -61.68,-39.85 -28.44,-19.32 -38.89,-17.45 -82.22,-14.24 13.06,71.96 148.28,116.36 228.91,166.71l256.65 144.54 -8.15 18.51z"/>
    <path class="fil0" d="M1260.83 1500.78c-17.67,36.5 -14.93,93.17 -8.94,137.63 28.28,209.71 290.28,328.44 463.93,188.56 102.71,-82.74 83.55,-104.06 119.92,-179.94 13.67,-178.96 -78.1,-311.85 -222.69,-345.17 -176.13,-40.59 -314.26,68.95 -352.22,198.92z"/>
    <path class="fil3" d="M1711.54 1466.09c-14.88,7.12 -25.71,11.5 -41.68,15.83 -24.28,6.58 -36.2,5.55 -47.44,14.05 17.34,10.5 49.09,4.17 71.13,3.13l-5.52 57.68c-53.53,11.2 -119.06,33.65 -114.2,98.15 30.46,-3.09 39.31,-11.58 76.56,-8.92 -29.99,21.47 -40.11,17.61 -52.47,57.52 -30.34,-14.65 -41.35,-52.51 -50.97,-89.6 -24.63,-95.01 13.45,-60.75 10.64,-117.33 -16.97,6.15 -5.26,10.8 -26.81,14.43l-4.85 -49.21c-22.36,0.36 -31.34,7.18 -43.24,14.99 -2.13,23.67 2.58,39.31 7.6,58.34 -65.79,2.26 -32.09,-27.59 -66.69,-46.05 -51.31,11.63 -30.8,103.58 -109.38,91.57 -22.25,-34.31 -14.54,-47.42 -19.04,-67.7 -6.21,-28 1.86,-11.86 -11.52,-16.74 -18.35,33.42 6.94,85.06 11.11,118.05 5.88,46.52 4.82,83.46 34.83,105.94 30.17,22.61 83.38,14.22 111.43,-4.12 30.7,-20.05 51.87,-46.99 79.09,-66.48 11.83,11.88 100.79,146.35 157.43,139.53l1.07 -36.71c-23.99,-18.12 -44.19,-22.3 -58.65,-39.33 5.91,-40.21 46.03,-43.53 82.85,-53.81 21.97,-6.13 32.13,-7.01 56.7,-11.07 25.72,-4.24 34.58,-7.14 35.07,-31.47l-156.19 -1.19c51.97,-51.04 70.31,-30.37 98.88,-18.52l2.15 -21.53c74.48,-20.05 41,-70.12 -17.14,-83.81 11.94,-10.57 29.92,-17.59 36.95,-32.25 10.27,-21.41 6.28,-44.14 -13.5,-49.22 -21.24,-5.44 -42.55,2.75 -50.65,15.09 -16.71,25.45 3.74,28.31 16.47,40.74z"/>
    <path class="fil0" d="M1758.11 1825.29c10.45,22.02 93.51,97.42 108.21,111.06 19.98,18.52 36.77,35.32 55.92,55.05 20.05,20.66 40.73,33.36 40.84,73.54 -35.76,4.67 -43.24,-3.63 -58.62,-21.95 -11.96,-14.27 -28.6,-33.53 -36.03,-50.25l-71.67 5.94c-8.48,63.31 -101.15,263.69 -16.81,323.43 21.45,15.2 62.24,11.42 79.3,-4.31 24.76,-22.84 24.05,-36.42 23.98,-78.67 -0.07,-46.01 -0.23,-50.74 -24.6,-78.02 -25.11,-28.12 -18.35,-30.81 -14.52,-81.15 45.26,-4.19 110.43,5.69 141.12,1.87 24.37,-81.86 32.85,-53.2 -71.65,-149.37 -24.13,-22.2 -118.39,-108.36 -137.73,-116.96l-17.75 9.8z"/>
    <path class="fil0" d="M1081.97 2083.25c44.61,-0.56 83.78,-9.6 134.11,-3.04l14.43 57.46c-20.25,24.85 -26.95,19.57 -40.85,55.83 -48.15,125.61 69.78,175.33 110.82,110.64 53.75,-84.71 -23.78,-294.49 -42,-304.4 -79.05,-9.3 -42.57,71.14 -124.69,66.13 -1.61,-52.08 3.86,-46.99 34.26,-72.67 53.75,-45.42 11.16,-38.46 49.67,-56.38 37.3,-17.35 106.25,-87.15 113.46,-103.02l-12.41 -15.62c-29.25,8.37 -178.31,145.14 -213.84,179.55 -28.5,27.6 -45.35,33.54 -22.97,85.52z"/>
    <path class="fil3" d="M2269.18 892.76c51.04,75.72 124.04,132.23 225.09,52.47 28.45,-22.46 64.34,-62.86 52.37,-123.43 -7.21,-36.48 -54.87,-91.22 -75.87,-105.49l-101.14 85.03c-19.41,16.82 -31.67,29.01 -50.68,45.81 -15.85,14.01 -37.97,28.5 -49.78,45.6z"/>
    <path class="fil3" d="M1498.39 2557.47c-51.68,15.85 -77.11,69.14 -66.65,136.39 9.41,60.5 47.85,106.94 118.68,87.26 104.69,-29.08 81.97,-264.72 -52.03,-223.64z"/>
    <path class="fil3" d="M1563.85 592.2l32.39 0.95 50.89 -162.3c13.18,38.21 27.53,153.03 41.88,176.75 12.7,-3.48 4.71,10.2 24.27,-33.29 6.49,-14.42 12.86,-28.14 20.02,-42.68 12.05,-24.45 29.54,-66.2 42.13,-82.4l11.4 167.38 32.96 5.82 -16.67 -249.95c-2.19,-20.61 1.07,-18.62 -12.76,-25.35 -18.12,8.44 -80.16,164.4 -88.16,183.24 -21.01,-50.19 -27.02,-191.1 -51.78,-201.35 -17.14,9.27 -38.93,102.14 -46.66,126.36 -9.07,28.4 -39.28,113.04 -39.89,136.8z"/>
    <path class="fil3" d="M293.41 1331.9c3.97,20.63 52.03,39.37 81.48,54.65 32.38,16.8 61.61,34.51 93.2,47.87 -41.82,22.09 -185.76,13.32 -202.38,37.42 6.34,18.21 20.2,16.5 55.94,30.56 45.4,17.86 167.13,70.52 198.21,76.06l5.37 -29.27c-19.19,-16.97 -126.05,-48.2 -158.02,-66.31 29.36,-4.92 166.89,-20.58 180.89,-30.35 -12.36,-15.37 -125.21,-76.23 -155.24,-94.31l170.69 -1.69 5.65 -33.3c-43.31,-2.7 -92.02,1.02 -134.68,1.73l-106.58 0.3c-34.3,-0.08 -27.11,3.36 -30.88,4.79 -0.94,0.35 -2.51,1.08 -3.64,1.85z"/>
    <path class="fil3" d="M743.22 864.75c-22.42,-5.23 -108.94,-49.78 -139,-64.71l-35.93 -16.27c-35.19,-0.87 3.64,38.39 17.68,58.62 14.19,20.44 24.98,36.13 39.77,56.5 19.03,26.2 66.49,99.88 83.65,112.68l22.86 -21.43 -98 -138.63c53.26,9.46 189.35,110.67 164.71,53.59 -3.06,-7.08 -8.49,-15.77 -11.86,-22.42 -7.28,-14.37 -14.33,-27.58 -21.55,-41.38 -12.49,-23.87 -34.96,-61.22 -40.3,-82.26 26.63,16.34 121.39,84.34 143.39,89.39 11.23,-9.72 13.44,-9.05 18.87,-23.21 -29.14,-24.34 -153.84,-97.78 -199.1,-128.56 -97.81,-66.49 30.61,104.4 54.82,168.1z"/>
    <path class="fil3" d="M1829.93 626.07c10.08,5.2 18.83,10.2 32.8,11.21l94.92 -136.93 -13.38 182.64c16.93,-1.82 115,-111.53 129.25,-130.16 1.17,46.09 -36.72,124.67 -34.28,168.48l30.57 10.68c6.58,-44.11 20.05,-93.6 30.01,-138.17l25.6 -114.12c2.25,-55.23 -58.7,33.13 -74.65,50.97 -15.41,17.24 -21.09,24.62 -36.2,41.03 -6.41,6.96 -29.07,31.52 -33.7,38.11 -4.14,-96.31 56.23,-288.76 -23.53,-167.86 -41.52,62.94 -88.72,122.22 -127.41,184.12z"/>
    <path class="fil3" d="M2527 1341.89l59.11 10.57 19.36 98.62 -51.62 29.05 6.42 37.14c10.58,-3.36 205.76,-116.88 235.7,-140.01 17.9,-13.83 8.16,-1.96 12.29,-16.4 -14.47,-8.13 -258.08,-55.22 -287.88,-57.05l6.63 38.09z"/>
    <path class="fil3" d="M2074.48 732.55c7.83,11.5 14.87,17.34 29.54,24.95l48.08 -28.49c17.52,7.44 68.34,47.6 79.92,62.41l-17.45 52.85c10.98,13.19 15.74,15.59 29.4,23.41 10.31,-13.79 86.77,-254.64 87.66,-279.13 -25.54,3.51 -226.2,124.76 -257.15,143.99z"/>
    <path class="fil3" d="M1336.34 606.83l38.71 0.35 17.99 -57.81 97.99 -7.42 25.04 55.16 38.07 -3.58c-7,-31.14 -43.56,-100.04 -58.98,-134.26l-52.5 -116.54c-11.03,-20.1 -0.01,-9.1 -14.26,-13.9l-92.08 278z"/>
    <path class="fil3" d="M1192.89 372.95c-2.22,25.87 22.52,75.83 27.58,105.31 -26.3,8.47 -85.8,32.37 -110.55,32.65l-32.44 -96.02 -33.16 6.42c-0.08,17.21 70.98,235.13 81.69,257.51 14.5,-3.82 21.15,-4.32 31.8,-12.88l-37.36 -120.22 109.41 -36.85 42.4 121.8 32.62 -8.09c-1.76,-22.03 -69.88,-239.21 -83.97,-256.12l-28.01 6.49z"/>
    <path class="fil3" d="M2560.52 1582.84c29.85,10.74 93.09,3.6 127.7,5.49l-0.96 116.09 -128.58 -0.37 -1.08 36.7 267.89 4.91 1.25 -35.45 -105.6 -2.89 0.26 -117.93 107.29 0.33 0.61 -35.91 -267.73 -5.01 -1.04 34.04z"/>
    <path class="fil3" d="M903.93 497.05c38.8,94.13 158.43,185.22 74.75,235.61 -84.72,51.02 -123.23,-131.61 -177.61,-172.5l-27.92 17.44c22.04,42.94 57.78,93.37 85.28,137.17 33.29,53.01 66.05,91.75 141.67,44.07 60.67,-38.26 54.59,-87.6 18.13,-145.95 -15.94,-25.51 -70.56,-119.45 -86.87,-134.34 -9.2,4.54 -19.54,10.52 -27.44,18.49z"/>
    <path class="fil3" d="M472.48 1210.33l-129.48 -50.84 -13.95 31.98 249.07 102.96 12.04 -34.33c-56.32,-32.43 -69.13,-11.58 -96.19,-77.8 18.8,-11.3 61.56,-13.2 86.9,-17.65 46.33,-8.13 56.25,1.69 65.51,-44.37l-173.17 25.3c-23.52,-31.21 -54.31,-92.53 -77.48,-112.6 -41.09,47.83 55.69,113.33 76.76,177.34z"/>
    <path class="fil0" d="M2320.04 897.59c63.69,132.59 283.22,-37.97 150.73,-130.77 -18.51,9.56 -60.25,48.62 -76.63,63.81 -18.71,17.34 -62.78,48.69 -74.1,66.96z"/>
    <path class="fil3" d="M713.07 2780.31l30.32 0.52 0.8 -82.28c57.3,-7.72 115.24,-4.84 108.39,-81.8 -5.61,-63 -74.82,-62.29 -138.22,-58.06l-1.28 221.63z"/>
    <path class="fil3" d="M300.56 1645.57c-12.2,-7.23 -14.79,-7.67 -30.32,-8.51 -20.84,35.87 -9.68,95.67 16.76,117.11 35.13,28.48 87.17,15.13 108.16,-17.56 21.47,-33.43 20.91,-89.62 68.27,-90.98 57.78,-1.66 42.14,62.53 31.3,98.67l35.62 10.24c13.5,-46.35 17,-91.84 -13.68,-123.72 -27.44,-28.5 -80.3,-30.24 -108.13,-1.46 -22.91,23.68 -31.41,84.34 -56.77,97.84 -21.11,11.23 -46.16,4.35 -54.27,-12.36 -11.48,-23.63 -1.24,-47.7 3.07,-69.26z"/>
    <path class="fil4" d="M1313.84 1625.45c8.8,46.32 31.79,82.66 89.57,62.91 38.07,-13.01 81.04,-42.83 101.43,-61.99l-3.2 -57.53c-69.28,5.4 -58.14,-10.65 -81.06,-56.34 -45.43,79.11 -24.5,109.48 -106.74,112.95z"/>
    <path class="fil0" d="M1501.63 2585.7c-67,25.06 -49.5,205.8 44.1,166.48 61.11,-25.67 51.17,-202.12 -44.1,-166.48z"/>
    <path class="fil3" d="M2040.98 2780.01l29.26 0.68 18.76 -44.04 83.66 -2.26c5.13,17.16 7.57,33.31 18.22,46.24l28.36 -0.64c-2.74,-12.52 -70.07,-208.32 -86.26,-223.54l-7.08 8.45c-0.51,0.82 -1.4,2.15 -1.93,3.09 -2.96,5.29 -3.86,8.81 -5.69,13.72 -3.7,9.93 -5.98,16.1 -10.85,27.58l-66.44 170.71z"/>
    <path class="fil3" d="M2248.79 2780.25l24.77 0.27 0.74 -153.94c16.53,14.67 68.83,92.26 89.02,120.65 10.73,15.09 16.11,32.19 33.9,35.69l1.24 -224.23 -27.89 -0.26 -1.34 148.36c-40.98,-34.03 -93.26,-146.59 -124.12,-147.69 -0.95,39.97 -7.92,196.62 3.69,221.15z"/>
    <path class="fil3" d="M1056.84 2779.25l25.67 2.27 0.89 -154.29c28.63,14.2 91.97,147.27 122.34,155.7l1.61 -224.83 -28.21 0.47 -1.09 148.05c-18.78,-17.47 -42.49,-53.63 -58.92,-76.17 -19.53,-26.79 -42.3,-69.26 -62.29,-71.41 -7.14,16.72 -7.12,202.37 0,220.22z"/>
    <path class="fil3" d="M1655.22 2780.81l19.3 0.24c6.49,-13.74 5.39,-28.43 5.21,-44.79l0.58 -110.63c29.42,32.58 61.53,85 88.61,122.42 12.4,17.13 17.04,33.51 34.46,34.33l1.19 -223.7 -28.22 -0.51 -1.4 148.92c-16.81,-13.14 -42.99,-54.31 -58.58,-75.48 -10.17,-13.8 -17.74,-24.92 -28.5,-39.04 -12.82,-16.81 -16.64,-31.54 -36.87,-34.39 -1.7,36.48 -0.68,73.81 -0.69,110.44 -0.01,22.82 -4,96.07 4.91,112.18z"/>
    <path class="fil3" d="M2012.75 2765.56l1.57 -101.62 -59.31 0.4 -0.42 23.59 25.73 8.11c0.89,0.33 2.61,0.8 3.73,1.54l-0.05 48.54c-145.99,65.51 -161.59,-220.24 9.89,-149.29l9.14 -24.17c-53.36,-40.96 -165.2,-17.36 -163.87,100.82 1.19,105.42 85.1,133.86 173.59,92.08z"/>
    <path class="fil3" d="M2484.47 1220.13c3.92,16.79 5.1,22.84 15.26,33.42 38.95,-9.4 86.93,-44.99 128.92,-40.33 43.44,4.82 107.65,20.84 149.04,20.07 -4.22,-14.53 -5.95,-21.62 -15.02,-33.85l-128.78 -17.53c9.05,-20.68 33.5,-46.49 47.28,-64.23 29.5,-37.99 37.28,-27.12 20.7,-75.45 -17.99,13.26 -69.07,84.89 -88.15,109.29 -21.23,27.16 -18.76,25.17 -56.51,40.25 -22.38,8.94 -50.37,22.64 -72.75,28.36z"/>
    <path class="fil3" d="M887.56 2781.02c22.93,0.07 45.45,0.3 67.93,0.32l48.13 -0.46c0.03,-0.01 -4.09,8.33 15.66,-6.09l-0.09 -14.48 -20.08 -6.09c-6.94,-0.75 -21.5,-0.05 -29.14,0.04 -17.09,0.21 -34.03,0.31 -51.09,-0.63l-1.37 -79.15c13.94,-1 24.69,-0.95 38.22,-0.87 20.08,0.11 33.33,1.92 35.38,-9.82 4.88,-27.79 -31.85,-14.38 -71.63,-16.96l-1.94 -59.62c31.57,-3.37 75.51,5.79 101.53,-5.46l1.11 -19.29c-19.94,-9.77 -108.5,-4.83 -131.7,-4.16l-0.93 222.7z"/>
    <path class="fil3" d="M1403.94 2760.6l-15.06 -23.33c-122.45,97.83 -166.66,-174.9 -29.13,-153.28 28.38,4.46 28.6,15.11 34.15,-16.71 -34.66,-27.71 -154.75,-23.71 -150.31,111.13 3.29,99.98 89.16,137.11 160.36,82.18z"/>
    <path class="fil0" d="M1048.65 1944.77c-0.01,17.26 1.12,22.5 8.18,35.32 21.63,-9.3 169.81,-126.24 210.85,-157.55 10.65,-8.13 24.82,-13.11 24.44,-27.66 -1,-37.95 -92.92,37.17 -123.78,58.66 -38.43,26.76 -88.53,60.68 -119.69,91.23z"/>
    <path class="fil3" d="M2411.63 1079.73l15.58 30.89c27.03,-6.68 202.46,-111.79 234.55,-132.72l-15.93 -28.52c-29.95,6.14 -185.38,108.23 -234.2,130.35z"/>
    <path class="fil0" d="M2018.82 1955.34c2.15,-47.75 -25.45,-51.98 -98.66,-101.95 -20.93,-14.28 -101.68,-71.82 -119.31,-76.39 -2.37,31.82 72.67,79.56 97.56,98.3 29.12,21.93 78.62,77.89 120.41,80.04z"/>
    <path class="fil3" d="M1452.88 1419.22l-0.25 32.8c14.51,-1.89 157.56,-65.84 172.15,-76.68l0.24 -26.55c-38.19,1.2 -133.48,55.2 -172.14,70.44z"/>
    <path class="fil3" d="M1389.58 1435.27c26.38,-1.4 104.63,-41.24 135.44,-54.6 30.33,-13.15 26.82,-4.51 25.51,-41.32 -29.35,2.32 -68.59,24.09 -93.53,35.58 -74.22,34.21 -67.27,18.85 -67.41,60.34z"/>
    <path class="fil0" d="M744.39 2667.14c107.02,12.09 102.9,-95.83 -0.14,-80.25l0.14 80.25z"/>
    <path class="fil0" d="M2181.63 709.37c12.32,18.7 49.14,39.76 60,50.9l41.91 -112.14c-35.49,14.28 -68.52,44.85 -101.91,61.24z"/>
    <path class="fil0" d="M1401.58 517.91l74.66 -2.5c-0.63,-21.51 -31.26,-95.13 -42.99,-110.04l-31.67 112.54z"/>
    <path class="fil0" d="M2630.08 1433.15l88.31 -46.65c13.81,-9.19 -6.91,6.09 5.93,-4.31 5.06,-4.1 4.63,-4.03 8.28,-8.08l-115.62 -17.34 13.11 76.39z"/>
    <path class="fil3" d="M1424.8 1794.27c19.61,0.99 21.73,-3.64 32.59,-13.54 20.17,-18.4 98.39,-66.81 61.28,-83.98 -10.56,-4.89 -77.69,53.47 -87.57,62.68 -13.59,12.68 -12.86,14.78 -6.3,34.85z"/>
    <path class="fil0" d="M1689.05 1875.31c15.46,15.89 85.5,35.1 110.45,40.17l-53.06 -71.29 -57.38 31.12z"/>
    <path class="fil0" d="M2099.34 2710.86l61.98 0.74 -27.79 -91.9c-13.43,16.11 -29.78,71.33 -34.19,91.16z"/>
    <path class="fil3" d="M1569.61 1810.57l3.48 -30.61c-5.27,-2.7 -7.41,-3.11 -12.11,-5.92 -1.09,-0.65 -4.72,-2.9 -5.67,-3.56l-5.03 -4.26c7.06,-11.47 8.75,-10.56 14.06,-23.74 -56.23,1.17 -75.28,94.16 5.27,68.09z"/>
    <path class="fil5" d="M1649.11 1432.14c-27.84,-2.98 -2.21,-10.82 -33.02,-13.04l2.1 21.67c-25.61,-4.39 -5.8,-4.16 -24.05,-11.09 -0.73,53.95 38.62,22.17 38.67,22.15 10.74,-3.29 36.72,14.17 32.56,-33.28 -1.6,-18.2 -0.6,-14.63 -14.96,-20.79 -6.53,9.77 -6.01,-10.24 -4.84,15.13 0.07,1.71 3.37,7.25 3.55,19.25z"/>
   </g>
   <path class="fil0" d="M1723.42 1546.1l22.27 -3.89c-10.25,-25.5 -23.94,-23.55 -22.27,3.89z"/>
   <path class="fil0" d="M1716.23 1443.46c13.86,9.17 13.75,8.69 26.02,0.16 -9.15,-13.63 -23.33,-14.14 -26.02,-0.16z"/>
   <path class="fil3" d="M1346.35 1465.7c-26.37,-0.06 -34.31,-3.61 -30.89,24.81l33.39 2.1 4.59 -19.03 29.52 -3.52c9.49,-27.76 -9.64,-26.01 -29.63,-25.26l-6.98 20.91z"/>
   <path class="fil3" d="M1457.29 1604.99c-23.85,-11.25 -29.54,-17.83 -38.5,9.35l29.34 16.08 12.23 -15.29 28.22 9.34c20.37,-21.11 2.31,-27.64 -16.11,-35.45l-15.19 15.97z"/>
   <path class="fil3" d="M1693.62 1684.37c8.52,12.47 5.15,4.32 21.57,10.76 -17.48,11.49 -15.78,13.45 -11.27,34.07 23.41,7.31 50.96,10.91 48.9,-20.83 -17.46,10.22 -6.31,12.61 -29.55,11.47 -5.3,-32.78 13.86,-11.1 26.83,-41.98 -20.68,0.32 -42.3,-4.83 -56.47,6.51z"/>
  </g>
  <path class="fil6" d="M4072.85 822.02c-60.03,0 -117.8,-7.51 -173.3,-22.51 -55.5,-15.01 -100.7,-34.38 -135.61,-58.12l68.07 -152.88c32.81,20.94 70.68,38.22 113.62,51.83 42.94,13.62 85.69,20.42 128.28,20.42 28.62,0 51.66,-2.62 69.11,-7.85 17.45,-5.24 30.19,-12.22 38.22,-20.95 8.03,-8.73 12.04,-19.02 12.04,-30.89 0,-16.76 -7.68,-30.02 -23.04,-39.8 -15.36,-9.77 -35.26,-17.8 -59.69,-24.09 -24.43,-6.28 -51.49,-12.56 -81.15,-18.85 -29.67,-6.28 -59.34,-14.31 -89.01,-24.08 -29.67,-9.77 -56.72,-22.51 -81.16,-38.22 -24.43,-15.71 -44.33,-36.3 -59.69,-61.78 -15.36,-25.48 -23.04,-57.77 -23.04,-96.86 0,-43.98 12.04,-83.77 36.12,-119.38 24.09,-35.6 60.21,-64.22 108.39,-85.87 48.17,-21.64 108.2,-32.46 180.11,-32.46 48.17,0 95.46,5.41 141.89,16.23 46.43,10.82 87.79,26.7 124.09,47.65l-63.88 153.93c-34.91,-18.85 -69.46,-32.98 -103.67,-42.41 -34.21,-9.42 -67.37,-14.14 -99.48,-14.14 -28.62,0 -51.66,2.97 -69.11,8.9 -17.46,5.93 -30.02,13.79 -37.7,23.56 -7.68,9.77 -11.52,20.94 -11.52,33.51 0,16.06 7.5,28.79 22.51,38.22 15.01,9.42 34.9,17.1 59.69,23.03 24.78,5.94 52.01,12.04 81.68,18.33 29.67,6.28 59.34,14.14 89.01,23.56 29.67,9.43 56.72,22 81.15,37.7 24.43,15.71 44.16,36.3 59.17,61.78 15.01,25.48 22.51,57.42 22.51,95.82 0,42.58 -12.04,81.85 -36.13,117.81 -24.08,35.95 -60.03,64.75 -107.86,86.39 -47.82,21.64 -108.03,32.46 -180.64,32.46z"/>
  <polygon id="_1" class="fil6" points="4492.77,807.36 4492.77,74.35 4663.45,74.35 4967.13,572.8 4877.08,572.8 5172.38,74.35 5343.07,74.35 5345.16,807.36 5154.58,807.36 5152.48,364.41 5184.94,364.41 4963.99,735.11 4871.84,735.11 4644.6,364.41 4684.4,364.41 4684.4,807.36 "/>
  <path id="_2" class="fil6" d="M5677.11 645.05l-11.52 -232.47 315.19 -338.23 228.28 0 -314.15 340.33 -115.19 120.42 -102.62 109.95zm-185.35 162.31l0 -733.01 205.24 0 0 733.01 -205.24 0zm492.16 0l-238.75 -302.63 135.08 -144.51 344.52 447.14 -240.85 0z"/>
  <polygon id="_3" class="fil6" points="3815.25,1910.74 3815.25,1177.73 3985.93,1177.73 4289.61,1676.18 4199.56,1676.18 4494.86,1177.73 4665.55,1177.73 4667.64,1910.74 4477.06,1910.74 4474.96,1467.79 4507.43,1467.79 4286.47,1838.49 4194.32,1838.49 3967.09,1467.79 4006.88,1467.79 4006.88,1910.74 "/>
  <path id="_4" class="fil6" d="M5152.48 1925.4c-108.21,0 -192.68,-29.67 -253.41,-89.01 -60.74,-59.34 -91.1,-143.46 -91.1,-252.37l0 -406.3 207.34 0 0 400.02c0,62.83 12.39,107.86 37.18,135.08 24.78,27.23 58.82,40.84 102.1,40.84 43.28,0 77.14,-13.62 101.57,-40.84 24.43,-27.22 36.65,-72.25 36.65,-135.08l0 -400.02 204.2 0 0 406.3c0,108.91 -30.37,193.03 -91.1,252.37 -60.74,59.34 -145.21,89.01 -253.41,89.01z"/>
  <path id="_5" class="fil6" d="M6127.39 1177.73l206.29 0 1.05 733.01 -206.29 0 -1.05 -733.01zm-282.73 733.01l-206.29 0 -1.04 -733.01 206.29 0 1.05 733.01zm297.39 -286.92l-312.05 1.05 -1.05 -171.74 313.1 0 0 170.69z"/>
  <path id="_6" class="fil6" d="M6393.37 1910.74l323.57 -733.01 204.2 0 324.62 733.01 -215.72 0 -253.41 -631.44 81.68 0 -253.41 631.44 -211.53 0zm176.97 -142.41l53.41 -152.89 358.13 0 53.41 152.89 -464.94 0z"/>
  <polygon id="_7" class="fil6" points="7304.4,1910.74 7304.4,1177.73 7475.08,1177.73 7778.76,1676.18 7688.71,1676.18 7984.01,1177.73 8154.7,1177.73 8156.79,1910.74 7966.21,1910.74 7964.11,1467.79 7996.58,1467.79 7775.62,1838.49 7683.47,1838.49 7456.24,1467.79 7496.03,1467.79 7496.03,1910.74 "/>
  <polygon id="_8" class="fil6" points="8303.4,1910.74 8303.4,1177.73 8474.08,1177.73 8777.76,1676.18 8687.71,1676.18 8983.01,1177.73 9153.69,1177.73 9155.79,1910.74 8965.21,1910.74 8963.11,1467.79 8995.57,1467.79 8774.62,1838.49 8682.47,1838.49 8455.23,1467.79 8495.03,1467.79 8495.03,1910.74 "/>
  <path id="_9" class="fil6" d="M9214.43 1910.74l323.57 -733.01 204.2 0 324.62 733.01 -215.72 0 -253.41 -631.44 81.68 0 -253.41 631.44 -211.53 0zm176.97 -142.41l53.41 -152.89 358.13 0 53.41 152.89 -464.94 0z"/>
  <path id="_10" class="fil6" d="M10126.51 1910.74l-1.04 -733.01 346.61 0c80.98,0 152.19,15.01 213.62,45.03 61.44,30.02 109.43,72.25 143.99,126.7 34.56,54.45 51.49,119.38 50.79,194.78 0.7,74.7 -16.23,139.45 -50.79,194.25 -34.56,54.8 -82.55,97.21 -143.99,127.23 -61.43,30.02 -132.64,45.03 -213.62,45.03l-345.57 0zm206.29 -165.45l130.89 0c42.59,0.7 79.24,-6.98 109.95,-23.04 30.72,-16.06 54.8,-39.27 72.25,-69.64 17.45,-30.37 26.53,-66.49 27.23,-108.38 -0.7,-42.58 -9.77,-78.89 -27.23,-108.9 -17.45,-30.02 -41.54,-53.06 -72.25,-69.11 -30.72,-16.06 -67.36,-23.73 -109.95,-23.04l-130.89 -1.05 0 403.16z"/>
  <polygon id="_11" class="fil6" points="10991.46,1910.74 10990.42,1177.73 11197.76,1177.73 11197.76,1910.74 "/>
  <polygon id="_12" class="fil6" points="11530.76,1910.74 11530.76,1600.78 11578.92,1725.39 11251.16,1177.73 11470.02,1177.73 11706.68,1574.6 11579.97,1574.6 11817.68,1177.73 12018.73,1177.73 11692.02,1725.39 11738.09,1600.78 11738.09,1910.74 "/>
  <path id="_13" class="fil6" d="M11937.05 1910.74l323.57 -733.01 204.2 0 324.62 733.01 -215.72 0 -253.41 -631.44 81.68 0 -253.41 631.44 -211.53 0zm176.97 -142.41l53.41 -152.89 358.13 0 53.41 152.89 -464.94 0z"/>
  <path id="_14" class="fil6" d="M13338.16 1177.73l206.29 0 1.05 733.01 -206.29 0 -1.05 -733.01zm-282.73 733.01l-206.29 0 -1.04 -733.01 206.29 0 1.05 733.01zm297.39 -286.92l-312.05 1.05 -1.05 -171.74 313.1 0 0 170.69z"/>
  <path id="_15" class="fil6" d="M3815.25 3014.12l0 -733.01 335.09 0c67.02,0 124.79,10.82 173.3,32.46 48.52,21.64 86.04,52.88 112.57,93.73 26.53,40.84 39.8,89.18 39.8,145.03 0,55.15 -13.26,102.97 -39.8,143.46 -26.53,40.49 -64.05,71.73 -112.57,93.72 -48.52,22 -106.29,32.99 -173.3,32.99l-219.91 0 92.15 -90.06 0 281.68 -207.34 0zm207.34 -259.69l-92.15 -95.29 207.34 0c43.28,0 75.57,-9.43 96.87,-28.28 21.29,-18.85 31.94,-45.03 31.94,-78.54 0,-34.2 -10.65,-60.74 -31.94,-79.58 -21.29,-18.85 -53.58,-28.27 -96.87,-28.27l-207.34 0 92.15 -95.29 0 405.25z"/>
  <path id="_16" class="fil6" d="M4766.07 2565.94l341.38 -1.05 -1.05 153.93 -339.28 1.05 -1.05 -153.93zm13.62 289.01l385.36 -1.05 -1.05 160.22 -587.46 0 1.04 -733.01 573.85 0 -2.1 159.17 -367.56 1.05 -2.09 413.63z"/>
  <polygon id="_17" class="fil6" points="5281.28,3014.12 5280.24,2281.11 5450.92,2281.11 5855.13,2769.09 5775.55,2769.09 5774.5,2281.11 5977.65,2281.11 5977.65,3014.12 5806.96,3014.12 5402.75,2526.14 5483.39,2526.14 5483.39,3014.12 "/>
  <path id="_18" class="fil6" d="M6489.71 3028.78c-57.94,0 -111.53,-9.25 -160.74,-27.75 -49.22,-18.5 -91.8,-44.85 -127.75,-79.06 -35.95,-34.2 -64.05,-74.52 -84.29,-120.95 -20.25,-46.42 -30.37,-97.56 -30.37,-153.41 0,-55.85 10.12,-106.98 30.37,-153.41 20.25,-46.43 48.34,-86.74 84.29,-120.95 35.95,-34.21 78.54,-60.56 127.75,-79.07 49.22,-18.5 102.8,-27.75 160.74,-27.75 67.72,0 128.28,11.87 181.68,35.6 53.41,23.74 97.91,57.94 133.52,102.62l-131.95 119.38c-23.73,-27.93 -49.74,-49.22 -78.01,-63.88 -28.27,-14.67 -59.86,-22 -94.77,-22 -30.02,0 -57.6,4.89 -82.73,14.66 -25.13,9.77 -46.6,23.91 -64.4,42.41 -17.8,18.5 -31.76,40.67 -41.89,66.5 -10.12,25.83 -15.18,54.45 -15.18,85.87 0,31.42 5.06,60.03 15.18,85.87 10.12,25.83 24.09,48 41.89,66.5 17.8,18.5 39.27,32.64 64.4,42.41 25.13,9.77 52.71,14.67 82.73,14.67 34.9,0 66.5,-7.34 94.77,-22 28.28,-14.66 54.28,-35.95 78.01,-63.88l131.95 119.38c-35.61,43.98 -80.11,78.01 -133.52,102.1 -53.41,24.08 -113.97,36.12 -181.68,36.12z"/>
  <path id="_19" class="fil6" d="M7249.95 3026.69c-57.24,0.7 -110.82,-8.2 -160.74,-26.7 -49.92,-18.5 -93.2,-45.03 -129.85,-79.58 -36.65,-34.56 -64.93,-75.05 -84.82,-121.47 -19.89,-46.42 -29.84,-96.86 -29.84,-151.32 -0.7,-55.15 9.25,-105.59 29.84,-151.32 20.6,-45.73 49.05,-85.87 85.35,-120.42 36.3,-34.56 79.41,-61.26 129.33,-80.11 49.91,-18.85 103.49,-28.27 160.74,-28.27 60.04,-0.7 114.49,8.55 163.36,27.75 48.87,19.2 91.63,45.9 128.28,80.11 36.65,34.21 65.1,74.35 85.34,120.42 20.25,46.08 30.02,96.69 29.32,151.84 0.7,55.15 -9.08,105.94 -29.32,152.36 -20.25,46.42 -48.69,86.56 -85.34,120.42 -36.65,33.86 -79.41,60.38 -128.28,79.58 -48.87,19.2 -103.32,28.1 -163.36,26.7zm0 -167.55c28.62,-1.4 54.98,-6.98 79.06,-16.76 24.09,-9.77 45.03,-23.91 62.83,-42.41 17.8,-18.5 31.94,-40.49 42.41,-65.97 10.48,-25.48 15.71,-54.28 15.71,-86.39 -0.7,-32.11 -6.11,-61.08 -16.23,-86.91 -10.12,-25.83 -24.08,-47.82 -41.88,-65.97 -17.81,-18.15 -38.58,-32.28 -62.31,-42.41 -23.73,-10.12 -50.27,-15.54 -79.58,-16.23 -27.23,1.4 -53.06,6.98 -77.49,16.75 -24.43,9.77 -45.55,23.74 -63.36,41.89 -17.8,18.15 -31.59,40.14 -41.36,65.97 -9.77,25.83 -15.01,54.8 -15.71,86.91 0.7,31.42 5.94,60.21 15.71,86.39 9.77,26.18 23.74,48.34 41.89,66.5 18.15,18.15 39.09,32.28 62.83,42.41 23.73,10.12 49.56,15.54 77.49,16.23z"/>
  <polygon id="_20" class="fil6" points="7768.3,3014.12 7767.26,2281.11 7937.94,2281.11 8342.15,2769.09 8262.57,2769.09 8261.52,2281.11 8464.66,2281.11 8464.66,3014.12 8293.98,3014.12 7889.77,2526.14 7970.4,2526.14 7970.4,3014.12 "/>
  <path id="_21" class="fil6" d="M8977.78 3028.78c-57.94,0 -111.7,-9.25 -161.27,-27.75 -49.56,-18.5 -92.32,-44.85 -128.28,-79.06 -35.95,-34.2 -64.05,-74.52 -84.29,-120.95 -20.25,-46.42 -30.37,-97.56 -30.37,-153.41 0,-55.85 10.12,-106.98 30.37,-153.41 20.25,-46.43 48.52,-86.74 84.82,-120.95 36.3,-34.21 79.41,-60.56 129.33,-79.07 49.91,-18.5 104.54,-27.75 163.88,-27.75 69.11,0 130.89,11.52 185.35,34.56 54.45,23.04 99.48,56.19 135.08,99.48l-131.94 119.38c-25.14,-27.23 -52.19,-47.65 -81.16,-61.26 -28.97,-13.61 -61.26,-20.42 -96.86,-20.42 -31.42,0 -60.04,4.89 -85.87,14.66 -25.83,9.77 -47.82,23.91 -65.97,42.41 -18.15,18.5 -32.29,40.49 -42.41,65.97 -10.12,25.48 -15.18,54.28 -15.18,86.39 0,30.72 5.06,58.99 15.18,84.82 10.12,25.83 24.26,47.99 42.41,66.49 18.15,18.5 39.97,32.81 65.45,42.94 25.48,10.12 53.58,15.18 84.29,15.18 30.72,0 60.74,-5.06 90.06,-15.18 29.32,-10.12 58.99,-27.4 89.01,-51.84l116.23 145.56c-41.89,30.02 -90.4,53.05 -145.55,69.11 -55.15,16.06 -109.26,24.09 -162.31,24.09zm124.61 -120.42l0 -276.45 183.25 0 0 303.68 -183.25 -27.23z"/>
  <path id="_22" class="fil6" d="M9329.63 3014.12l323.57 -733.01 204.2 0 324.62 733.01 -215.72 0 -253.41 -631.44 81.68 0 -253.41 631.44 -211.53 0zm176.97 -142.41l53.41 -152.89 358.13 0 53.41 152.89 -464.94 0z"/>
  <polygon id="_23" class="fil6" points="10241.7,3014.12 10240.66,2281.11 10411.34,2281.11 10815.55,2769.09 10735.97,2769.09 10734.92,2281.11 10938.07,2281.11 10938.07,3014.12 10767.38,3014.12 10363.17,2526.14 10443.81,2526.14 10443.81,3014.12 "/>
 </g>
</svg>
